<svg xmlns="http://www.w3.org/2000/svg" width="2364" height="640" viewBox="0 0 2364 640">
<defs>
<linearGradient id="bg" x1="0" y1="0" x2="1" y2="1"><stop offset="0" stop-color="#070b16"/><stop offset="0.55" stop-color="#0a1020"/><stop offset="1" stop-color="#0e1230"/></linearGradient>
<radialGradient id="glow" cx="0.5" cy="0.5" r="0.5"><stop offset="0" stop-color="#22c55e" stop-opacity="0.24"/><stop offset="1" stop-color="#22c55e" stop-opacity="0"/></radialGradient>
</defs>
<rect width="2364" height="640" fill="url(#bg)"/>
<ellipse cx="1182" cy="320" rx="640" ry="420" fill="url(#glow)"/>
<g transform="rotate(0 1182 320)">
<radialGradient id="cf1182320" cx="0.42" cy="0.38" r="0.78"><stop offset="0" stop-color="#14532d"/><stop offset="1" stop-color="#052e16"/></radialGradient>
<circle cx="1182" cy="320" r="160" fill="url(#cf1182320)" stroke="#22c55e" stroke-width="6" opacity="0.97"/>
<circle cx="1182" cy="320" r="138" fill="none" stroke="#86efac" stroke-width="2" opacity="0.5"/>
<line x1="1338" y1="320" x2="1328" y2="320" stroke="#86efac" stroke-width="2" opacity="0.32"/>
<line x1="1337" y1="335" x2="1328" y2="334" stroke="#86efac" stroke-width="2" opacity="0.32"/>
<line x1="1335" y1="350" x2="1326" y2="349" stroke="#86efac" stroke-width="2" opacity="0.32"/>
<line x1="1331" y1="365" x2="1322" y2="362" stroke="#86efac" stroke-width="2" opacity="0.32"/>
<line x1="1326" y1="380" x2="1317" y2="376" stroke="#86efac" stroke-width="2" opacity="0.32"/>
<line x1="1320" y1="394" x2="1311" y2="389" stroke="#86efac" stroke-width="2" opacity="0.32"/>
<line x1="1312" y1="407" x2="1304" y2="401" stroke="#86efac" stroke-width="2" opacity="0.32"/>
<line x1="1303" y1="419" x2="1295" y2="413" stroke="#86efac" stroke-width="2" opacity="0.32"/>
<line x1="1292" y1="430" x2="1286" y2="424" stroke="#86efac" stroke-width="2" opacity="0.32"/>
<line x1="1281" y1="441" x2="1275" y2="433" stroke="#86efac" stroke-width="2" opacity="0.32"/>
<line x1="1269" y1="450" x2="1263" y2="442" stroke="#86efac" stroke-width="2" opacity="0.32"/>
<line x1="1256" y1="458" x2="1251" y2="449" stroke="#86efac" stroke-width="2" opacity="0.32"/>
<line x1="1242" y1="464" x2="1238" y2="455" stroke="#86efac" stroke-width="2" opacity="0.32"/>
<line x1="1227" y1="469" x2="1224" y2="460" stroke="#86efac" stroke-width="2" opacity="0.32"/>
<line x1="1212" y1="473" x2="1211" y2="464" stroke="#86efac" stroke-width="2" opacity="0.32"/>
<line x1="1197" y1="475" x2="1196" y2="466" stroke="#86efac" stroke-width="2" opacity="0.32"/>
<line x1="1182" y1="476" x2="1182" y2="466" stroke="#86efac" stroke-width="2" opacity="0.32"/>
<line x1="1167" y1="475" x2="1168" y2="466" stroke="#86efac" stroke-width="2" opacity="0.32"/>
<line x1="1152" y1="473" x2="1153" y2="464" stroke="#86efac" stroke-width="2" opacity="0.32"/>
<line x1="1137" y1="469" x2="1140" y2="460" stroke="#86efac" stroke-width="2" opacity="0.32"/>
<line x1="1122" y1="464" x2="1126" y2="455" stroke="#86efac" stroke-width="2" opacity="0.32"/>
<line x1="1108" y1="458" x2="1113" y2="449" stroke="#86efac" stroke-width="2" opacity="0.32"/>
<line x1="1095" y1="450" x2="1101" y2="442" stroke="#86efac" stroke-width="2" opacity="0.32"/>
<line x1="1083" y1="441" x2="1089" y2="433" stroke="#86efac" stroke-width="2" opacity="0.32"/>
<line x1="1072" y1="430" x2="1078" y2="424" stroke="#86efac" stroke-width="2" opacity="0.32"/>
<line x1="1061" y1="419" x2="1069" y2="413" stroke="#86efac" stroke-width="2" opacity="0.32"/>
<line x1="1052" y1="407" x2="1060" y2="401" stroke="#86efac" stroke-width="2" opacity="0.32"/>
<line x1="1044" y1="394" x2="1053" y2="389" stroke="#86efac" stroke-width="2" opacity="0.32"/>
<line x1="1038" y1="380" x2="1047" y2="376" stroke="#86efac" stroke-width="2" opacity="0.32"/>
<line x1="1033" y1="365" x2="1042" y2="362" stroke="#86efac" stroke-width="2" opacity="0.32"/>
<line x1="1029" y1="350" x2="1038" y2="349" stroke="#86efac" stroke-width="2" opacity="0.32"/>
<line x1="1027" y1="335" x2="1036" y2="334" stroke="#86efac" stroke-width="2" opacity="0.32"/>
<line x1="1026" y1="320" x2="1036" y2="320" stroke="#86efac" stroke-width="2" opacity="0.32"/>
<line x1="1027" y1="305" x2="1036" y2="306" stroke="#86efac" stroke-width="2" opacity="0.32"/>
<line x1="1029" y1="290" x2="1038" y2="291" stroke="#86efac" stroke-width="2" opacity="0.32"/>
<line x1="1033" y1="275" x2="1042" y2="278" stroke="#86efac" stroke-width="2" opacity="0.32"/>
<line x1="1038" y1="260" x2="1047" y2="264" stroke="#86efac" stroke-width="2" opacity="0.32"/>
<line x1="1044" y1="246" x2="1053" y2="251" stroke="#86efac" stroke-width="2" opacity="0.32"/>
<line x1="1052" y1="233" x2="1060" y2="239" stroke="#86efac" stroke-width="2" opacity="0.32"/>
<line x1="1061" y1="221" x2="1069" y2="227" stroke="#86efac" stroke-width="2" opacity="0.32"/>
<line x1="1072" y1="210" x2="1078" y2="216" stroke="#86efac" stroke-width="2" opacity="0.32"/>
<line x1="1083" y1="199" x2="1089" y2="207" stroke="#86efac" stroke-width="2" opacity="0.32"/>
<line x1="1095" y1="190" x2="1101" y2="198" stroke="#86efac" stroke-width="2" opacity="0.32"/>
<line x1="1108" y1="182" x2="1113" y2="191" stroke="#86efac" stroke-width="2" opacity="0.32"/>
<line x1="1122" y1="176" x2="1126" y2="185" stroke="#86efac" stroke-width="2" opacity="0.32"/>
<line x1="1137" y1="171" x2="1140" y2="180" stroke="#86efac" stroke-width="2" opacity="0.32"/>
<line x1="1152" y1="167" x2="1153" y2="176" stroke="#86efac" stroke-width="2" opacity="0.32"/>
<line x1="1167" y1="165" x2="1168" y2="174" stroke="#86efac" stroke-width="2" opacity="0.32"/>
<line x1="1182" y1="164" x2="1182" y2="174" stroke="#86efac" stroke-width="2" opacity="0.32"/>
<line x1="1197" y1="165" x2="1196" y2="174" stroke="#86efac" stroke-width="2" opacity="0.32"/>
<line x1="1212" y1="167" x2="1211" y2="176" stroke="#86efac" stroke-width="2" opacity="0.32"/>
<line x1="1227" y1="171" x2="1224" y2="180" stroke="#86efac" stroke-width="2" opacity="0.32"/>
<line x1="1242" y1="176" x2="1238" y2="185" stroke="#86efac" stroke-width="2" opacity="0.32"/>
<line x1="1256" y1="182" x2="1251" y2="191" stroke="#86efac" stroke-width="2" opacity="0.32"/>
<line x1="1269" y1="190" x2="1263" y2="198" stroke="#86efac" stroke-width="2" opacity="0.32"/>
<line x1="1281" y1="199" x2="1275" y2="207" stroke="#86efac" stroke-width="2" opacity="0.32"/>
<line x1="1292" y1="210" x2="1286" y2="216" stroke="#86efac" stroke-width="2" opacity="0.32"/>
<line x1="1303" y1="221" x2="1295" y2="227" stroke="#86efac" stroke-width="2" opacity="0.32"/>
<line x1="1312" y1="233" x2="1304" y2="239" stroke="#86efac" stroke-width="2" opacity="0.32"/>
<line x1="1320" y1="246" x2="1311" y2="251" stroke="#86efac" stroke-width="2" opacity="0.32"/>
<line x1="1326" y1="260" x2="1317" y2="264" stroke="#86efac" stroke-width="2" opacity="0.32"/>
<line x1="1331" y1="275" x2="1322" y2="278" stroke="#86efac" stroke-width="2" opacity="0.32"/>
<line x1="1335" y1="290" x2="1326" y2="291" stroke="#86efac" stroke-width="2" opacity="0.32"/>
<line x1="1337" y1="305" x2="1328" y2="306" stroke="#86efac" stroke-width="2" opacity="0.32"/>
<path d="M 1086 232 A 131 131 0 0 1 1227 192" fill="none" stroke="#86efac" stroke-width="6" opacity="0.3" stroke-linecap="round"/>
</g>
<line x1="1506" y1="323" x2="1491" y2="364" stroke="#4ade80" stroke-width="1" opacity="0.16"/>
<line x1="1506" y1="323" x2="1487" y2="270" stroke="#4ade80" stroke-width="1" opacity="0.16"/>
<line x1="1491" y1="364" x2="1506" y2="323" stroke="#4ade80" stroke-width="1" opacity="0.16"/>
<line x1="1433" y1="414" x2="1491" y2="364" stroke="#4ade80" stroke-width="1" opacity="0.16"/>
<line x1="1433" y1="414" x2="1488" y2="469" stroke="#4ade80" stroke-width="1" opacity="0.16"/>
<line x1="1351" y1="447" x2="1410" y2="496" stroke="#4ade80" stroke-width="1" opacity="0.16"/>
<line x1="1351" y1="447" x2="1316" y2="515" stroke="#4ade80" stroke-width="1" opacity="0.16"/>
<line x1="1235" y1="467" x2="1203" y2="524" stroke="#4ade80" stroke-width="1" opacity="0.16"/>
<line x1="1235" y1="467" x2="1316" y2="515" stroke="#4ade80" stroke-width="1" opacity="0.16"/>
<line x1="1135" y1="467" x2="1069" y2="518" stroke="#4ade80" stroke-width="1" opacity="0.16"/>
<line x1="1135" y1="467" x2="1203" y2="524" stroke="#4ade80" stroke-width="1" opacity="0.16"/>
<line x1="927" y1="412" x2="882" y2="471" stroke="#4ade80" stroke-width="1" opacity="0.16"/>
<line x1="858" y1="325" x2="884" y2="379" stroke="#4ade80" stroke-width="1" opacity="0.16"/>
<line x1="858" y1="325" x2="884" y2="262" stroke="#4ade80" stroke-width="1" opacity="0.16"/>
<line x1="935" y1="224" x2="966" y2="141" stroke="#4ade80" stroke-width="1" opacity="0.16"/>
<line x1="1032" y1="188" x2="1065" y2="123" stroke="#4ade80" stroke-width="1" opacity="0.16"/>
<line x1="1137" y1="173" x2="1177" y2="115" stroke="#4ade80" stroke-width="1" opacity="0.16"/>
<line x1="1137" y1="173" x2="1220" y2="172" stroke="#4ade80" stroke-width="1" opacity="0.16"/>
<line x1="1220" y1="172" x2="1177" y2="115" stroke="#4ade80" stroke-width="1" opacity="0.16"/>
<line x1="1352" y1="193" x2="1429" y2="224" stroke="#4ade80" stroke-width="1" opacity="0.16"/>
<line x1="1429" y1="224" x2="1487" y2="270" stroke="#4ade80" stroke-width="1" opacity="0.16"/>
<line x1="1429" y1="224" x2="1352" y2="193" stroke="#4ade80" stroke-width="1" opacity="0.16"/>
<line x1="1487" y1="270" x2="1429" y2="224" stroke="#4ade80" stroke-width="1" opacity="0.16"/>
<line x1="1627" y1="328" x2="1618" y2="278" stroke="#4ade80" stroke-width="1" opacity="0.16"/>
<line x1="1627" y1="328" x2="1605" y2="384" stroke="#4ade80" stroke-width="1" opacity="0.16"/>
<line x1="1605" y1="384" x2="1627" y2="328" stroke="#4ade80" stroke-width="1" opacity="0.16"/>
<line x1="1410" y1="496" x2="1351" y2="447" stroke="#4ade80" stroke-width="1" opacity="0.16"/>
<line x1="1410" y1="496" x2="1488" y2="469" stroke="#4ade80" stroke-width="1" opacity="0.16"/>
<line x1="1316" y1="515" x2="1351" y2="447" stroke="#4ade80" stroke-width="1" opacity="0.16"/>
<line x1="1316" y1="515" x2="1235" y2="467" stroke="#4ade80" stroke-width="1" opacity="0.16"/>
<line x1="1203" y1="524" x2="1235" y2="467" stroke="#4ade80" stroke-width="1" opacity="0.16"/>
<line x1="1069" y1="518" x2="1135" y2="467" stroke="#4ade80" stroke-width="1" opacity="0.16"/>
<line x1="1069" y1="518" x2="1005" y2="444" stroke="#4ade80" stroke-width="1" opacity="0.16"/>
<line x1="941" y1="492" x2="1005" y2="444" stroke="#4ade80" stroke-width="1" opacity="0.16"/>
<line x1="882" y1="471" x2="927" y2="412" stroke="#4ade80" stroke-width="1" opacity="0.16"/>
<line x1="788" y1="415" x2="754" y2="376" stroke="#4ade80" stroke-width="1" opacity="0.16"/>
<line x1="788" y1="415" x2="884" y2="379" stroke="#4ade80" stroke-width="1" opacity="0.16"/>
<line x1="754" y1="376" x2="788" y2="415" stroke="#4ade80" stroke-width="1" opacity="0.16"/>
<line x1="754" y1="376" x2="737" y2="311" stroke="#4ade80" stroke-width="1" opacity="0.16"/>
<line x1="737" y1="311" x2="748" y2="273" stroke="#4ade80" stroke-width="1" opacity="0.16"/>
<line x1="748" y1="273" x2="795" y2="218" stroke="#4ade80" stroke-width="1" opacity="0.16"/>
<line x1="795" y1="218" x2="748" y2="273" stroke="#4ade80" stroke-width="1" opacity="0.16"/>
<line x1="853" y1="182" x2="795" y2="218" stroke="#4ade80" stroke-width="1" opacity="0.16"/>
<line x1="853" y1="182" x2="884" y2="262" stroke="#4ade80" stroke-width="1" opacity="0.16"/>
<line x1="966" y1="141" x2="1032" y2="188" stroke="#4ade80" stroke-width="1" opacity="0.16"/>
<line x1="966" y1="141" x2="935" y2="224" stroke="#4ade80" stroke-width="1" opacity="0.16"/>
<line x1="1065" y1="123" x2="1032" y2="188" stroke="#4ade80" stroke-width="1" opacity="0.16"/>
<line x1="1065" y1="123" x2="1137" y2="173" stroke="#4ade80" stroke-width="1" opacity="0.16"/>
<line x1="1177" y1="115" x2="1137" y2="173" stroke="#4ade80" stroke-width="1" opacity="0.16"/>
<line x1="1177" y1="115" x2="1220" y2="172" stroke="#4ade80" stroke-width="1" opacity="0.16"/>
<line x1="1280" y1="120" x2="1220" y2="172" stroke="#4ade80" stroke-width="1" opacity="0.16"/>
<line x1="1395" y1="140" x2="1352" y2="193" stroke="#4ade80" stroke-width="1" opacity="0.16"/>
<line x1="1507" y1="180" x2="1560" y2="212" stroke="#4ade80" stroke-width="1" opacity="0.16"/>
<line x1="1560" y1="212" x2="1507" y2="180" stroke="#4ade80" stroke-width="1" opacity="0.16"/>
<line x1="1618" y1="278" x2="1627" y2="328" stroke="#4ade80" stroke-width="1" opacity="0.16"/>
<circle cx="1506" cy="323" r="9" fill="#a7f3d0" opacity="0.75"/>
<circle cx="1491" cy="364" r="5" fill="#4ade80" opacity="0.75"/>
<circle cx="1433" cy="414" r="9" fill="#86efac" opacity="0.75"/>
<circle cx="1351" cy="447" r="5" fill="#38bdf8" opacity="0.75"/>
<circle cx="1235" cy="467" r="5" fill="#86efac" opacity="0.75"/>
<circle cx="1135" cy="467" r="7" fill="#4ade80" opacity="0.75"/>
<circle cx="1005" cy="444" r="5" fill="#38bdf8" opacity="0.75"/>
<circle cx="927" cy="412" r="7" fill="#86efac" opacity="0.75"/>
<circle cx="884" cy="379" r="9" fill="#86efac" opacity="0.75"/>
<circle cx="858" cy="325" r="5" fill="#86efac" opacity="0.75"/>
<circle cx="884" cy="262" r="5" fill="#38bdf8" opacity="0.75"/>
<circle cx="935" cy="224" r="7" fill="#4ade80" opacity="0.75"/>
<circle cx="1032" cy="188" r="5" fill="#a7f3d0" opacity="0.75"/>
<circle cx="1137" cy="173" r="7" fill="#86efac" opacity="0.75"/>
<circle cx="1220" cy="172" r="9" fill="#4ade80" opacity="0.75"/>
<circle cx="1352" cy="193" r="7" fill="#a7f3d0" opacity="0.75"/>
<circle cx="1429" cy="224" r="7" fill="#38bdf8" opacity="0.75"/>
<circle cx="1487" cy="270" r="9" fill="#a7f3d0" opacity="0.75"/>
<circle cx="1627" cy="328" r="9" fill="#86efac" opacity="0.75"/>
<circle cx="1605" cy="384" r="5" fill="#38bdf8" opacity="0.75"/>
<circle cx="1560" cy="428" r="9" fill="#4ade80" opacity="0.75"/>
<circle cx="1488" cy="469" r="5" fill="#86efac" opacity="0.75"/>
<circle cx="1410" cy="496" r="5" fill="#38bdf8" opacity="0.75"/>
<circle cx="1316" cy="515" r="7" fill="#86efac" opacity="0.75"/>
<circle cx="1203" cy="524" r="9" fill="#38bdf8" opacity="0.75"/>
<circle cx="1069" cy="518" r="7" fill="#a7f3d0" opacity="0.75"/>
<circle cx="941" cy="492" r="9" fill="#86efac" opacity="0.75"/>
<circle cx="882" cy="471" r="7" fill="#a7f3d0" opacity="0.75"/>
<circle cx="788" cy="415" r="7" fill="#38bdf8" opacity="0.75"/>
<circle cx="754" cy="376" r="9" fill="#4ade80" opacity="0.75"/>
<circle cx="737" cy="311" r="5" fill="#a7f3d0" opacity="0.75"/>
<circle cx="748" cy="273" r="5" fill="#4ade80" opacity="0.75"/>
<circle cx="795" cy="218" r="7" fill="#86efac" opacity="0.75"/>
<circle cx="853" cy="182" r="9" fill="#4ade80" opacity="0.75"/>
<circle cx="966" cy="141" r="5" fill="#a7f3d0" opacity="0.75"/>
<circle cx="1065" cy="123" r="7" fill="#86efac" opacity="0.75"/>
<circle cx="1177" cy="115" r="9" fill="#a7f3d0" opacity="0.75"/>
<circle cx="1280" cy="120" r="7" fill="#38bdf8" opacity="0.75"/>
<circle cx="1395" cy="140" r="9" fill="#a7f3d0" opacity="0.75"/>
<circle cx="1507" cy="180" r="5" fill="#38bdf8" opacity="0.75"/>
<circle cx="1560" cy="212" r="9" fill="#a7f3d0" opacity="0.75"/>
<circle cx="1618" cy="278" r="7" fill="#4ade80" opacity="0.75"/>
<ellipse cx="1182" cy="320" rx="330" ry="150" fill="none" stroke="#4ade80" stroke-width="1.5" opacity="0.25" stroke-dasharray="4 12"/>
<ellipse cx="1182" cy="320" rx="462" ry="210" fill="none" stroke="#4ade80" stroke-width="1.5" opacity="0.16" stroke-dasharray="4 12"/>
</svg>