<svg xmlns="http://www.w3.org/2000/svg" width="2364" height="640" viewBox="0 0 2364 640">
<defs>
<linearGradient id="bg" x1="0" y1="0" x2="1" y2="1"><stop offset="0" stop-color="#070b16"/><stop offset="0.55" stop-color="#0a1020"/><stop offset="1" stop-color="#0e1230"/></linearGradient>
<radialGradient id="glow" cx="0.5" cy="0.5" r="0.5"><stop offset="0" stop-color="#fbbf24" stop-opacity="0.24"/><stop offset="1" stop-color="#fbbf24" stop-opacity="0"/></radialGradient>
</defs>
<rect width="2364" height="640" fill="url(#bg)"/>
<ellipse cx="1182" cy="320" rx="640" ry="420" fill="url(#glow)"/>
<line x1="1182" y1="170" x2="1182" y2="540" stroke="#64748b" stroke-width="16" opacity="0.8"/>
<ellipse cx="1182" cy="550" rx="150" ry="18" fill="#334155" opacity="0.8"/>
<g transform="rotate(6 1182 170)">
<line x1="852" y1="170" x2="1512" y2="170" stroke="#94a3b8" stroke-width="12" opacity="0.85"/>
<line x1="852" y1="170" x2="806" y2="320" stroke="#64748b" stroke-width="5" opacity="0.7"/>
<line x1="852" y1="170" x2="898" y2="320" stroke="#64748b" stroke-width="5" opacity="0.7"/>
<path d="M 782 320 A 70 34 0 0 0 922 320 Z" fill="#334155" opacity="0.85"/>
<line x1="1512" y1="170" x2="1466" y2="320" stroke="#64748b" stroke-width="5" opacity="0.7"/>
<line x1="1512" y1="170" x2="1558" y2="320" stroke="#64748b" stroke-width="5" opacity="0.7"/>
<path d="M 1442 320 A 70 34 0 0 0 1582 320 Z" fill="#334155" opacity="0.85"/>
</g>
<g transform="rotate(0 838 213)">
<radialGradient id="cf838213" cx="0.42" cy="0.38" r="0.78"><stop offset="0" stop-color="#7a5c14"/><stop offset="1" stop-color="#3a2c08"/></radialGradient>
<circle cx="838" cy="213" r="92" fill="url(#cf838213)" stroke="#fcd34d" stroke-width="3" opacity="0.97"/>
<circle cx="838" cy="213" r="79" fill="none" stroke="#fde68a" stroke-width="2" opacity="0.5"/>
<line x1="926" y1="213" x2="921" y2="213" stroke="#fde68a" stroke-width="2" opacity="0.32"/>
<line x1="925" y1="228" x2="919" y2="227" stroke="#fde68a" stroke-width="2" opacity="0.32"/>
<line x1="921" y1="243" x2="916" y2="241" stroke="#fde68a" stroke-width="2" opacity="0.32"/>
<line x1="914" y1="257" x2="910" y2="254" stroke="#fde68a" stroke-width="2" opacity="0.32"/>
<line x1="906" y1="269" x2="901" y2="266" stroke="#fde68a" stroke-width="2" opacity="0.32"/>
<line x1="895" y1="280" x2="891" y2="276" stroke="#fde68a" stroke-width="2" opacity="0.32"/>
<line x1="882" y1="289" x2="879" y2="284" stroke="#fde68a" stroke-width="2" opacity="0.32"/>
<line x1="868" y1="295" x2="866" y2="290" stroke="#fde68a" stroke-width="2" opacity="0.32"/>
<line x1="853" y1="299" x2="852" y2="294" stroke="#fde68a" stroke-width="2" opacity="0.32"/>
<line x1="838" y1="301" x2="838" y2="295" stroke="#fde68a" stroke-width="2" opacity="0.32"/>
<line x1="823" y1="299" x2="824" y2="294" stroke="#fde68a" stroke-width="2" opacity="0.32"/>
<line x1="808" y1="295" x2="810" y2="290" stroke="#fde68a" stroke-width="2" opacity="0.32"/>
<line x1="794" y1="289" x2="797" y2="284" stroke="#fde68a" stroke-width="2" opacity="0.32"/>
<line x1="782" y1="280" x2="785" y2="276" stroke="#fde68a" stroke-width="2" opacity="0.32"/>
<line x1="771" y1="269" x2="775" y2="266" stroke="#fde68a" stroke-width="2" opacity="0.32"/>
<line x1="762" y1="257" x2="767" y2="254" stroke="#fde68a" stroke-width="2" opacity="0.32"/>
<line x1="755" y1="243" x2="761" y2="241" stroke="#fde68a" stroke-width="2" opacity="0.32"/>
<line x1="751" y1="228" x2="757" y2="227" stroke="#fde68a" stroke-width="2" opacity="0.32"/>
<line x1="750" y1="213" x2="756" y2="213" stroke="#fde68a" stroke-width="2" opacity="0.32"/>
<line x1="751" y1="197" x2="757" y2="198" stroke="#fde68a" stroke-width="2" opacity="0.32"/>
<line x1="755" y1="183" x2="761" y2="184" stroke="#fde68a" stroke-width="2" opacity="0.32"/>
<line x1="762" y1="169" x2="767" y2="171" stroke="#fde68a" stroke-width="2" opacity="0.32"/>
<line x1="771" y1="156" x2="775" y2="160" stroke="#fde68a" stroke-width="2" opacity="0.32"/>
<line x1="782" y1="145" x2="785" y2="150" stroke="#fde68a" stroke-width="2" opacity="0.32"/>
<line x1="794" y1="136" x2="797" y2="141" stroke="#fde68a" stroke-width="2" opacity="0.32"/>
<line x1="808" y1="130" x2="810" y2="135" stroke="#fde68a" stroke-width="2" opacity="0.32"/>
<line x1="823" y1="126" x2="824" y2="131" stroke="#fde68a" stroke-width="2" opacity="0.32"/>
<line x1="838" y1="125" x2="838" y2="130" stroke="#fde68a" stroke-width="2" opacity="0.32"/>
<line x1="853" y1="126" x2="852" y2="131" stroke="#fde68a" stroke-width="2" opacity="0.32"/>
<line x1="868" y1="130" x2="866" y2="135" stroke="#fde68a" stroke-width="2" opacity="0.32"/>
<line x1="882" y1="136" x2="879" y2="141" stroke="#fde68a" stroke-width="2" opacity="0.32"/>
<line x1="895" y1="145" x2="891" y2="150" stroke="#fde68a" stroke-width="2" opacity="0.32"/>
<line x1="906" y1="156" x2="901" y2="160" stroke="#fde68a" stroke-width="2" opacity="0.32"/>
<line x1="914" y1="169" x2="910" y2="171" stroke="#fde68a" stroke-width="2" opacity="0.32"/>
<line x1="921" y1="183" x2="916" y2="184" stroke="#fde68a" stroke-width="2" opacity="0.32"/>
<line x1="925" y1="197" x2="919" y2="198" stroke="#fde68a" stroke-width="2" opacity="0.32"/>
<path d="M 783 162 A 75 75 0 0 1 864 139" fill="none" stroke="#fde68a" stroke-width="6" opacity="0.3" stroke-linecap="round"/>
</g>
<g transform="rotate(0 1495 282)">
<radialGradient id="cf1495282" cx="0.42" cy="0.38" r="0.78"><stop offset="0" stop-color="#5a3a0c"/><stop offset="1" stop-color="#241705"/></radialGradient>
<circle cx="1495" cy="282" r="92" fill="url(#cf1495282)" stroke="#f7931a" stroke-width="3" opacity="0.97"/>
<circle cx="1495" cy="282" r="79" fill="none" stroke="#fcd34d" stroke-width="2" opacity="0.5"/>
<line x1="1583" y1="282" x2="1577" y2="282" stroke="#fcd34d" stroke-width="2" opacity="0.32"/>
<line x1="1581" y1="297" x2="1576" y2="296" stroke="#fcd34d" stroke-width="2" opacity="0.32"/>
<line x1="1577" y1="312" x2="1572" y2="310" stroke="#fcd34d" stroke-width="2" opacity="0.32"/>
<line x1="1571" y1="326" x2="1566" y2="323" stroke="#fcd34d" stroke-width="2" opacity="0.32"/>
<line x1="1562" y1="338" x2="1558" y2="335" stroke="#fcd34d" stroke-width="2" opacity="0.32"/>
<line x1="1551" y1="349" x2="1548" y2="345" stroke="#fcd34d" stroke-width="2" opacity="0.32"/>
<line x1="1539" y1="358" x2="1536" y2="353" stroke="#fcd34d" stroke-width="2" opacity="0.32"/>
<line x1="1525" y1="364" x2="1523" y2="359" stroke="#fcd34d" stroke-width="2" opacity="0.32"/>
<line x1="1510" y1="368" x2="1509" y2="363" stroke="#fcd34d" stroke-width="2" opacity="0.32"/>
<line x1="1495" y1="370" x2="1495" y2="364" stroke="#fcd34d" stroke-width="2" opacity="0.32"/>
<line x1="1479" y1="368" x2="1480" y2="363" stroke="#fcd34d" stroke-width="2" opacity="0.32"/>
<line x1="1464" y1="364" x2="1466" y2="359" stroke="#fcd34d" stroke-width="2" opacity="0.32"/>
<line x1="1451" y1="358" x2="1453" y2="353" stroke="#fcd34d" stroke-width="2" opacity="0.32"/>
<line x1="1438" y1="349" x2="1441" y2="345" stroke="#fcd34d" stroke-width="2" opacity="0.32"/>
<line x1="1427" y1="338" x2="1431" y2="335" stroke="#fcd34d" stroke-width="2" opacity="0.32"/>
<line x1="1418" y1="326" x2="1423" y2="323" stroke="#fcd34d" stroke-width="2" opacity="0.32"/>
<line x1="1412" y1="312" x2="1417" y2="310" stroke="#fcd34d" stroke-width="2" opacity="0.32"/>
<line x1="1408" y1="297" x2="1413" y2="296" stroke="#fcd34d" stroke-width="2" opacity="0.32"/>
<line x1="1407" y1="282" x2="1412" y2="282" stroke="#fcd34d" stroke-width="2" opacity="0.32"/>
<line x1="1408" y1="266" x2="1413" y2="267" stroke="#fcd34d" stroke-width="2" opacity="0.32"/>
<line x1="1412" y1="252" x2="1417" y2="253" stroke="#fcd34d" stroke-width="2" opacity="0.32"/>
<line x1="1418" y1="238" x2="1423" y2="240" stroke="#fcd34d" stroke-width="2" opacity="0.32"/>
<line x1="1427" y1="225" x2="1431" y2="229" stroke="#fcd34d" stroke-width="2" opacity="0.32"/>
<line x1="1438" y1="214" x2="1441" y2="218" stroke="#fcd34d" stroke-width="2" opacity="0.32"/>
<line x1="1451" y1="205" x2="1453" y2="210" stroke="#fcd34d" stroke-width="2" opacity="0.32"/>
<line x1="1464" y1="199" x2="1466" y2="204" stroke="#fcd34d" stroke-width="2" opacity="0.32"/>
<line x1="1479" y1="195" x2="1480" y2="200" stroke="#fcd34d" stroke-width="2" opacity="0.32"/>
<line x1="1495" y1="194" x2="1495" y2="199" stroke="#fcd34d" stroke-width="2" opacity="0.32"/>
<line x1="1510" y1="195" x2="1509" y2="200" stroke="#fcd34d" stroke-width="2" opacity="0.32"/>
<line x1="1525" y1="199" x2="1523" y2="204" stroke="#fcd34d" stroke-width="2" opacity="0.32"/>
<line x1="1539" y1="205" x2="1536" y2="210" stroke="#fcd34d" stroke-width="2" opacity="0.32"/>
<line x1="1551" y1="214" x2="1548" y2="218" stroke="#fcd34d" stroke-width="2" opacity="0.32"/>
<line x1="1562" y1="225" x2="1558" y2="229" stroke="#fcd34d" stroke-width="2" opacity="0.32"/>
<line x1="1571" y1="238" x2="1566" y2="240" stroke="#fcd34d" stroke-width="2" opacity="0.32"/>
<line x1="1577" y1="252" x2="1572" y2="253" stroke="#fcd34d" stroke-width="2" opacity="0.32"/>
<line x1="1581" y1="266" x2="1576" y2="267" stroke="#fcd34d" stroke-width="2" opacity="0.32"/>
<path d="M 1439 231 A 75 75 0 0 1 1520 208" fill="none" stroke="#fcd34d" stroke-width="6" opacity="0.3" stroke-linecap="round"/>
</g>
<path d="M 768 285 A 70 34 0 0 0 908 285 Z" fill="#3c4a60" opacity="0.95"/>
<path d="M 1425 354 A 70 34 0 0 0 1565 354 Z" fill="#3c4a60" opacity="0.95"/>
<circle cx="1182" cy="170" r="18" fill="#94a3b8" opacity="0.9"/>
</svg>